<?xml version="1.0" encoding="UTF-8" standalone="no"?>
<!-- Generator: Adobe Illustrator 16.1.0, SVG Export Plug-In . SVG Version: 6.00 Build 0)  -->

<svg
   xmlns:dc="http://purl.org/dc/elements/1.1/"
   xmlns:cc="http://creativecommons.org/ns#"
   xmlns:rdf="http://www.w3.org/1999/02/22-rdf-syntax-ns#"
   xmlns:svg="http://www.w3.org/2000/svg"
   xmlns="http://www.w3.org/2000/svg"
   xmlns:sodipodi="http://sodipodi.sourceforge.net/DTD/sodipodi-0.dtd"
   xmlns:inkscape="http://www.inkscape.org/namespaces/inkscape"
   version="1.1"
   id="Layer_1"
   x="0px"
   y="0px"
   width="561.26276"
   height="75.714157"
   viewBox="0 0 561.26276 75.714157"
   enable-background="new 0 0 909.5 745.5"
   xml:space="preserve"
   inkscape:version="0.48.5 r10040"
   sodipodi:docname="avatara_logo - standard only - transparent.svg"><metadata
   id="metadata82"><rdf:RDF><cc:Work
       rdf:about=""><dc:format>image/svg+xml</dc:format><dc:type
         rdf:resource="http://purl.org/dc/dcmitype/StillImage" /></cc:Work></rdf:RDF></metadata><defs
   id="defs80" /><sodipodi:namedview
   pagecolor="#ffffff"
   bordercolor="#666666"
   borderopacity="1"
   objecttolerance="10"
   gridtolerance="10"
   guidetolerance="10"
   inkscape:pageopacity="0"
   inkscape:pageshadow="2"
   inkscape:window-width="1654"
   inkscape:window-height="1056"
   id="namedview78"
   showgrid="false"
   inkscape:zoom="0.88942293"
   inkscape:cx="243.38078"
   inkscape:cy="28.604856"
   inkscape:window-x="0"
   inkscape:window-y="0"
   inkscape:window-maximized="0"
   inkscape:current-layer="Layer_1"
   fit-margin-top="0"
   fit-margin-left="0"
   fit-margin-right="0"
   fit-margin-bottom="0" />







<g
   id="g3000"
   transform="translate(-159.94094,-347.5241)"><g
     id="Layer_2">
</g><g
     transform="translate(-12.72028,232.1451)"
     id="g38">
	<path
   style="fill:#343a40"
   inkscape:connector-curvature="0"
   id="path40"
   d="m 280.338,166.096 c 0,-2.635 -0.67,-4.466 -2.01,-5.493 -1.34,-1.027 -3.283,-1.541 -5.828,-1.541 -1.564,0 -3.027,0.123 -4.389,0.368 -1.363,0.246 -2.691,0.569 -3.986,0.972 -0.85,-1.475 -1.273,-3.238 -1.273,-5.293 1.518,-0.491 3.193,-0.871 5.025,-1.14 1.83,-0.268 3.596,-0.401 5.293,-0.401 4.467,0 7.861,1.017 10.184,3.048 2.322,2.033 3.484,5.283 3.484,9.749 v 21.507 c -1.564,0.358 -3.463,0.727 -5.695,1.105 -2.234,0.379 -4.512,0.569 -6.834,0.569 -2.189,0 -4.166,-0.201 -5.93,-0.603 -1.766,-0.402 -3.26,-1.049 -4.488,-1.943 -1.229,-0.893 -2.178,-2.032 -2.848,-3.417 -0.67,-1.384 -1.006,-3.059 -1.006,-5.024 0,-1.92 0.391,-3.606 1.174,-5.059 0.781,-1.451 1.842,-2.657 3.182,-3.618 1.34,-0.96 2.881,-1.675 4.623,-2.145 1.742,-0.469 3.572,-0.703 5.494,-0.703 1.43,0 2.602,0.033 3.518,0.101 0.914,0.067 1.686,0.146 2.311,0.234 v -1.273 z m 0,6.499 c -0.67,-0.089 -1.518,-0.178 -2.545,-0.268 -1.027,-0.089 -1.898,-0.134 -2.613,-0.134 -2.77,0 -4.881,0.514 -6.332,1.541 -1.451,1.028 -2.178,2.591 -2.178,4.689 0,1.341 0.246,2.391 0.738,3.149 0.49,0.76 1.105,1.34 1.842,1.742 0.736,0.401 1.551,0.647 2.445,0.736 0.893,0.091 1.742,0.135 2.547,0.135 1.027,0 2.088,-0.056 3.182,-0.168 1.094,-0.11 2.066,-0.278 2.914,-0.502 v -10.92 z" />
	<path
   style="fill:#343a40"
   inkscape:connector-curvature="0"
   id="path42"
   d="m 288.914,154.371 c 0.625,-0.089 1.273,-0.156 1.943,-0.201 0.67,-0.044 1.273,-0.066 1.809,-0.066 0.58,0 1.217,0.022 1.91,0.066 0.691,0.045 1.283,0.112 1.775,0.201 l 9.381,28.341 9.447,-28.341 c 0.49,-0.089 1.049,-0.156 1.674,-0.201 0.625,-0.044 1.229,-0.066 1.809,-0.066 0.492,0 1.049,0.022 1.676,0.066 0.625,0.045 1.25,0.112 1.877,0.201 l -13.4,34.371 c -0.582,0.089 -1.162,0.156 -1.742,0.201 -0.582,0.044 -1.117,0.066 -1.607,0.066 -0.492,0 -1.018,-0.022 -1.576,-0.066 -0.559,-0.045 -1.105,-0.112 -1.641,-0.201 l -13.335,-34.371 z" />
	<path
   style="fill:#343a40"
   inkscape:connector-curvature="0"
   id="path44"
   d="m 343.854,166.096 c 0,-2.635 -0.67,-4.466 -2.01,-5.493 -1.34,-1.027 -3.283,-1.541 -5.828,-1.541 -1.564,0 -3.027,0.123 -4.389,0.368 -1.363,0.246 -2.691,0.569 -3.986,0.972 -0.85,-1.475 -1.273,-3.238 -1.273,-5.293 1.518,-0.491 3.193,-0.871 5.025,-1.14 1.83,-0.268 3.596,-0.401 5.293,-0.401 4.467,0 7.861,1.017 10.184,3.048 2.322,2.033 3.484,5.283 3.484,9.749 v 21.507 c -1.564,0.358 -3.463,0.727 -5.695,1.105 -2.234,0.379 -4.512,0.569 -6.834,0.569 -2.189,0 -4.166,-0.201 -5.93,-0.603 -1.766,-0.402 -3.26,-1.049 -4.488,-1.943 -1.229,-0.893 -2.178,-2.032 -2.848,-3.417 -0.67,-1.384 -1.006,-3.059 -1.006,-5.024 0,-1.92 0.391,-3.606 1.174,-5.059 0.781,-1.451 1.842,-2.657 3.182,-3.618 1.34,-0.96 2.881,-1.675 4.623,-2.145 1.742,-0.469 3.572,-0.703 5.494,-0.703 1.43,0 2.602,0.033 3.518,0.101 0.914,0.067 1.686,0.146 2.311,0.234 v -1.273 z m 0,6.499 c -0.67,-0.089 -1.518,-0.178 -2.545,-0.268 -1.027,-0.089 -1.898,-0.134 -2.613,-0.134 -2.77,0 -4.881,0.514 -6.332,1.541 -1.451,1.028 -2.178,2.591 -2.178,4.689 0,1.341 0.246,2.391 0.738,3.149 0.49,0.76 1.105,1.34 1.842,1.742 0.736,0.401 1.551,0.647 2.445,0.736 0.893,0.091 1.742,0.135 2.547,0.135 1.027,0 2.088,-0.056 3.182,-0.168 1.094,-0.11 2.066,-0.278 2.914,-0.502 v -10.92 z" />
	<path
   style="fill:#343a40"
   inkscape:connector-curvature="0"
   id="path46"
   d="m 359.934,159.664 h -5.225 l -0.27,-0.938 11.525,-12.864 h 0.535 v 8.509 h 8.711 c 0.178,0.76 0.268,1.608 0.268,2.546 0,0.492 -0.023,0.961 -0.066,1.407 -0.045,0.447 -0.113,0.894 -0.201,1.34 H 366.5 v 15.678 c 0,1.876 0.078,3.373 0.234,4.489 0.156,1.117 0.424,1.977 0.805,2.58 0.379,0.603 0.893,1.005 1.541,1.205 0.646,0.201 1.463,0.302 2.445,0.302 0.76,0 1.475,-0.056 2.145,-0.167 0.67,-0.111 1.271,-0.234 1.809,-0.369 0.312,0.895 0.502,1.81 0.568,2.747 0.068,0.938 0.102,1.766 0.102,2.479 -0.895,0.223 -1.832,0.391 -2.814,0.502 -0.982,0.111 -2.033,0.168 -3.148,0.168 -3.217,0 -5.729,-0.781 -7.537,-2.345 -1.811,-1.563 -2.715,-4.154 -2.715,-7.772 v -19.497 z" />
	<path
   style="fill:#343a40"
   inkscape:connector-curvature="0"
   id="path48"
   d="m 399.127,166.096 c 0,-2.635 -0.67,-4.466 -2.01,-5.493 -1.34,-1.027 -3.283,-1.541 -5.828,-1.541 -1.564,0 -3.027,0.123 -4.389,0.368 -1.363,0.246 -2.691,0.569 -3.986,0.972 -0.85,-1.475 -1.273,-3.238 -1.273,-5.293 1.518,-0.491 3.193,-0.871 5.025,-1.14 1.83,-0.268 3.596,-0.401 5.293,-0.401 4.467,0 7.861,1.017 10.184,3.048 2.322,2.033 3.484,5.283 3.484,9.749 v 21.507 c -1.564,0.358 -3.463,0.727 -5.695,1.105 -2.234,0.379 -4.512,0.569 -6.834,0.569 -2.189,0 -4.166,-0.201 -5.93,-0.603 -1.766,-0.402 -3.26,-1.049 -4.488,-1.943 -1.229,-0.893 -2.178,-2.032 -2.848,-3.417 -0.67,-1.384 -1.006,-3.059 -1.006,-5.024 0,-1.92 0.391,-3.606 1.174,-5.059 0.781,-1.451 1.842,-2.657 3.182,-3.618 1.34,-0.96 2.881,-1.675 4.623,-2.145 1.742,-0.469 3.572,-0.703 5.494,-0.703 1.43,0 2.602,0.033 3.518,0.101 0.914,0.067 1.686,0.146 2.311,0.234 v -1.273 z m 0,6.499 c -0.67,-0.089 -1.518,-0.178 -2.545,-0.268 -1.027,-0.089 -1.898,-0.134 -2.613,-0.134 -2.77,0 -4.881,0.514 -6.332,1.541 -1.451,1.028 -2.178,2.591 -2.178,4.689 0,1.341 0.246,2.391 0.738,3.149 0.49,0.76 1.105,1.34 1.842,1.742 0.736,0.401 1.551,0.647 2.445,0.736 0.893,0.091 1.742,0.135 2.547,0.135 1.027,0 2.088,-0.056 3.182,-0.168 1.094,-0.11 2.066,-0.278 2.914,-0.502 v -10.92 z" />
	<path
   style="fill:#343a40"
   inkscape:connector-curvature="0"
   id="path50"
   d="m 413.936,154.371 c 0.49,-0.089 0.959,-0.156 1.406,-0.201 0.445,-0.044 0.914,-0.066 1.406,-0.066 0.492,0 0.982,0.022 1.475,0.066 0.49,0.045 0.938,0.112 1.34,0.201 0.135,0.67 0.268,1.553 0.402,2.646 0.135,1.095 0.201,2.021 0.201,2.78 0.938,-1.518 2.178,-2.836 3.719,-3.953 1.541,-1.115 3.518,-1.675 5.93,-1.675 0.355,0 0.725,0.012 1.105,0.034 0.379,0.022 0.703,0.056 0.971,0.1 0.09,0.402 0.156,0.827 0.201,1.273 0.043,0.447 0.066,0.916 0.066,1.407 0,0.536 -0.033,1.095 -0.1,1.675 -0.068,0.581 -0.146,1.139 -0.234,1.675 -0.359,-0.089 -0.727,-0.134 -1.105,-0.134 -0.381,0 -0.682,0 -0.904,0 -1.207,0 -2.357,0.168 -3.451,0.503 -1.096,0.335 -2.076,0.927 -2.947,1.775 -0.871,0.848 -1.564,2.01 -2.078,3.483 -0.514,1.475 -0.77,3.373 -0.77,5.695 v 17.085 c -0.492,0.089 -1.039,0.156 -1.643,0.201 -0.604,0.044 -1.15,0.066 -1.641,0.066 -0.492,0 -1.039,-0.022 -1.643,-0.066 -0.602,-0.045 -1.172,-0.112 -1.707,-0.201 v -34.369 z" />
	<path
   style="fill:#343a40"
   inkscape:connector-curvature="0"
   id="path52"
   d="m 454.67,166.096 c 0,-2.635 -0.67,-4.466 -2.01,-5.493 -1.34,-1.027 -3.283,-1.541 -5.828,-1.541 -1.564,0 -3.027,0.123 -4.389,0.368 -1.363,0.246 -2.691,0.569 -3.986,0.972 -0.85,-1.475 -1.273,-3.238 -1.273,-5.293 1.518,-0.491 3.193,-0.871 5.025,-1.14 1.83,-0.268 3.596,-0.401 5.293,-0.401 4.467,0 7.861,1.017 10.184,3.048 2.322,2.033 3.484,5.283 3.484,9.749 v 21.507 c -1.564,0.358 -3.463,0.727 -5.695,1.105 -2.234,0.379 -4.512,0.569 -6.834,0.569 -2.189,0 -4.166,-0.201 -5.93,-0.603 -1.766,-0.402 -3.26,-1.049 -4.488,-1.943 -1.229,-0.893 -2.178,-2.032 -2.848,-3.417 -0.67,-1.384 -1.006,-3.059 -1.006,-5.024 0,-1.92 0.391,-3.606 1.174,-5.059 0.781,-1.451 1.842,-2.657 3.182,-3.618 1.34,-0.96 2.881,-1.675 4.623,-2.145 1.742,-0.469 3.572,-0.703 5.494,-0.703 1.43,0 2.602,0.033 3.518,0.101 0.914,0.067 1.686,0.146 2.311,0.234 v -1.273 z m 0,6.499 c -0.67,-0.089 -1.518,-0.178 -2.545,-0.268 -1.027,-0.089 -1.898,-0.134 -2.613,-0.134 -2.77,0 -4.881,0.514 -6.332,1.541 -1.451,1.028 -2.178,2.591 -2.178,4.689 0,1.341 0.246,2.391 0.738,3.149 0.49,0.76 1.105,1.34 1.842,1.742 0.736,0.401 1.551,0.647 2.445,0.736 0.893,0.091 1.742,0.135 2.547,0.135 1.027,0 2.088,-0.056 3.182,-0.168 1.094,-0.11 2.066,-0.278 2.914,-0.502 v -10.92 z" />
	<path
   style="fill:#343a40"
   inkscape:connector-curvature="0"
   id="path54"
   d="m 483.078,182.511 c 1.207,0.492 2.535,0.883 3.986,1.173 1.451,0.291 2.893,0.436 4.322,0.436 1.027,0 2.01,-0.111 2.947,-0.335 0.939,-0.223 1.754,-0.558 2.447,-1.005 0.691,-0.446 1.248,-0.993 1.674,-1.642 0.424,-0.647 0.637,-1.373 0.637,-2.178 0,-0.893 -0.168,-1.63 -0.502,-2.211 -0.336,-0.58 -0.783,-1.072 -1.34,-1.474 -0.561,-0.402 -1.207,-0.748 -1.943,-1.039 -0.738,-0.29 -1.531,-0.569 -2.379,-0.837 l -2.346,-0.871 c -2.857,-1.072 -4.936,-2.278 -6.23,-3.618 -1.294,-1.34 -1.943,-3.149 -1.943,-5.427 0,-3.037 1.084,-5.449 3.25,-7.236 2.166,-1.786 5.348,-2.68 9.547,-2.68 1.742,0 3.451,0.167 5.127,0.502 1.674,0.335 3.137,0.727 4.389,1.173 -0.092,0.894 -0.258,1.787 -0.504,2.68 -0.246,0.895 -0.547,1.721 -0.904,2.479 -0.982,-0.357 -2.154,-0.704 -3.518,-1.039 -1.364,-0.335 -2.824,-0.502 -4.389,-0.502 -1.652,0 -3.115,0.291 -4.389,0.871 -1.271,0.581 -1.908,1.607 -1.908,3.082 0,0.76 0.156,1.406 0.469,1.942 0.313,0.536 0.736,0.995 1.273,1.374 0.535,0.38 1.148,0.703 1.842,0.972 0.691,0.268 1.439,0.535 2.244,0.804 l 2.949,1.005 c 1.07,0.358 2.086,0.782 3.047,1.273 0.961,0.491 1.787,1.105 2.48,1.842 0.691,0.737 1.25,1.631 1.674,2.681 0.424,1.05 0.637,2.312 0.637,3.785 0,1.653 -0.334,3.16 -1.004,4.522 -0.672,1.363 -1.621,2.524 -2.848,3.484 -1.23,0.961 -2.715,1.708 -4.457,2.244 -1.742,0.536 -3.662,0.804 -5.762,0.804 -2.143,0 -4.02,-0.146 -5.627,-0.436 -1.609,-0.291 -3.105,-0.68 -4.49,-1.172 0.09,-0.894 0.279,-1.798 0.57,-2.714 0.29,-0.913 0.615,-1.818 0.972,-2.712 z" />
	<path
   style="fill:#343a40"
   inkscape:connector-curvature="0"
   id="path56"
   d="m 526.426,189.546 c -2.68,0 -5.023,-0.458 -7.035,-1.373 -2.01,-0.915 -3.684,-2.178 -5.023,-3.786 -1.34,-1.607 -2.336,-3.506 -2.982,-5.694 -0.648,-2.188 -0.971,-4.557 -0.971,-7.103 0,-2.546 0.322,-4.913 0.971,-7.102 0.646,-2.188 1.643,-4.087 2.982,-5.695 1.34,-1.607 3.014,-2.881 5.023,-3.818 2.012,-0.938 4.355,-1.407 7.035,-1.407 2.68,0 5.025,0.469 7.035,1.407 2.01,0.938 3.686,2.211 5.025,3.818 1.34,1.608 2.334,3.507 2.982,5.695 0.646,2.188 0.971,4.556 0.971,7.102 0,2.546 -0.324,4.914 -0.971,7.103 -0.648,2.188 -1.643,4.087 -2.982,5.694 -1.34,1.608 -3.016,2.871 -5.025,3.786 -2.009,0.915 -4.356,1.373 -7.035,1.373 z m 0,-5.293 c 3.082,0 5.361,-1.115 6.834,-3.35 1.475,-2.233 2.211,-5.337 2.211,-9.313 0,-3.975 -0.736,-7.068 -2.211,-9.279 -1.473,-2.211 -3.752,-3.316 -6.834,-3.316 -3.082,0 -5.35,1.105 -6.801,3.316 -1.451,2.211 -2.176,5.305 -2.176,9.279 0,3.977 0.725,7.08 2.176,9.313 1.451,2.235 3.719,3.35 6.801,3.35 z" />
	<path
   style="fill:#343a40"
   inkscape:connector-curvature="0"
   id="path58"
   d="m 551.484,159.598 h -5.627 c -0.18,-0.715 -0.27,-1.585 -0.27,-2.613 0,-0.982 0.09,-1.854 0.27,-2.613 h 5.627 v -2.412 c 0,-4.243 1.061,-7.471 3.184,-9.682 2.121,-2.211 5.213,-3.316 9.279,-3.316 1.115,0 2.098,0.057 2.947,0.168 0.848,0.111 1.652,0.279 2.412,0.502 -0.09,1.117 -0.213,2.077 -0.369,2.881 -0.156,0.805 -0.367,1.632 -0.635,2.479 -0.447,-0.089 -0.973,-0.189 -1.576,-0.302 -0.602,-0.11 -1.328,-0.167 -2.178,-0.167 -0.982,0 -1.865,0.101 -2.646,0.301 -0.781,0.201 -1.451,0.581 -2.01,1.14 -0.559,0.559 -0.994,1.34 -1.307,2.345 -0.313,1.005 -0.469,2.29 -0.469,3.853 v 2.211 h 8.777 c 0.135,0.895 0.201,1.81 0.201,2.747 0,0.849 -0.066,1.675 -0.201,2.479 h -8.777 v 29.145 c -0.492,0.089 -1.037,0.156 -1.641,0.201 -0.604,0.044 -1.15,0.066 -1.643,0.066 -0.493,0 -1.049,-0.022 -1.674,-0.066 -0.627,-0.045 -1.184,-0.112 -1.676,-0.201 v -29.146 z" />
	<path
   style="fill:#343a40"
   inkscape:connector-curvature="0"
   id="path60"
   d="m 576.207,159.664 h -5.225 l -0.27,-0.938 11.525,-12.864 h 0.535 v 8.509 h 8.711 c 0.178,0.76 0.268,1.608 0.268,2.546 0,0.492 -0.023,0.961 -0.066,1.407 -0.045,0.447 -0.113,0.894 -0.201,1.34 h -8.711 v 15.678 c 0,1.876 0.078,3.373 0.234,4.489 0.156,1.117 0.424,1.977 0.805,2.58 0.379,0.603 0.893,1.005 1.541,1.205 0.646,0.201 1.463,0.302 2.445,0.302 0.76,0 1.475,-0.056 2.145,-0.167 0.67,-0.111 1.271,-0.234 1.809,-0.369 0.312,0.895 0.502,1.81 0.568,2.747 0.068,0.938 0.102,1.766 0.102,2.479 -0.895,0.223 -1.832,0.391 -2.814,0.502 -0.982,0.111 -2.033,0.168 -3.148,0.168 -3.217,0 -5.729,-0.781 -7.537,-2.345 -1.811,-1.563 -2.715,-4.154 -2.715,-7.772 v -19.497 z" />
	<path
   style="fill:#343a40"
   inkscape:connector-curvature="0"
   id="path62"
   d="m 596.039,154.371 c 0.625,-0.089 1.25,-0.156 1.875,-0.201 0.625,-0.044 1.184,-0.066 1.676,-0.066 0.625,0 1.262,0.022 1.91,0.066 0.646,0.045 1.217,0.112 1.707,0.201 l 6.701,28.073 7.57,-28.073 c 0.492,-0.089 1.027,-0.156 1.609,-0.201 0.578,-0.044 1.182,-0.066 1.809,-0.066 0.713,0.045 1.328,0.078 1.842,0.101 0.514,0.023 1.016,0.078 1.508,0.167 l 7.504,27.604 6.699,-27.604 c 0.492,-0.089 0.982,-0.156 1.475,-0.201 0.49,-0.044 1.027,-0.066 1.607,-0.066 0.492,0 1.039,0.022 1.643,0.066 0.604,0.045 1.217,0.112 1.842,0.201 l -10.25,34.371 c -0.582,0.089 -1.174,0.156 -1.775,0.201 -0.604,0.044 -1.15,0.066 -1.643,0.066 -0.493,0 -1.027,-0.022 -1.607,-0.066 -0.582,-0.045 -1.162,-0.112 -1.742,-0.201 l -7.369,-25.996 -7.705,25.996 c -0.627,0.089 -1.24,0.156 -1.844,0.201 -0.604,0.044 -1.15,0.066 -1.641,0.066 -0.492,0 -1.039,-0.022 -1.643,-0.066 -0.602,-0.045 -1.15,-0.112 -1.641,-0.201 l -10.117,-34.372 z" />
	<path
   style="fill:#343a40"
   inkscape:connector-curvature="0"
   id="path64"
   d="m 668.332,166.096 c 0,-2.635 -0.67,-4.466 -2.01,-5.493 -1.34,-1.027 -3.283,-1.541 -5.83,-1.541 -1.562,0 -3.025,0.123 -4.389,0.368 -1.361,0.246 -2.691,0.569 -3.986,0.972 -0.848,-1.475 -1.271,-3.238 -1.271,-5.293 1.518,-0.491 3.191,-0.871 5.023,-1.14 1.832,-0.268 3.596,-0.401 5.293,-0.401 4.467,0 7.861,1.017 10.186,3.048 2.32,2.033 3.482,5.283 3.482,9.749 v 21.507 c -1.562,0.358 -3.461,0.727 -5.693,1.105 -2.234,0.379 -4.514,0.569 -6.834,0.569 -2.189,0 -4.166,-0.201 -5.93,-0.603 -1.766,-0.402 -3.262,-1.049 -4.49,-1.943 -1.229,-0.893 -2.178,-2.032 -2.848,-3.417 -0.67,-1.384 -1.004,-3.059 -1.004,-5.024 0,-1.92 0.391,-3.606 1.172,-5.059 0.781,-1.451 1.844,-2.657 3.184,-3.618 1.34,-0.96 2.881,-1.675 4.623,-2.145 1.74,-0.469 3.572,-0.703 5.494,-0.703 1.428,0 2.6,0.033 3.516,0.101 0.916,0.068 1.686,0.146 2.312,0.234 v -1.273 z m 0,6.499 c -0.67,-0.089 -1.52,-0.178 -2.547,-0.268 -1.027,-0.089 -1.898,-0.134 -2.611,-0.134 -2.771,0 -4.881,0.514 -6.332,1.541 -1.453,1.028 -2.178,2.591 -2.178,4.689 0,1.341 0.244,2.391 0.736,3.149 0.492,0.76 1.105,1.34 1.844,1.742 0.736,0.401 1.551,0.647 2.445,0.736 0.893,0.091 1.742,0.135 2.545,0.135 1.027,0 2.088,-0.056 3.184,-0.168 1.094,-0.11 2.064,-0.278 2.914,-0.502 v -10.92 z" />
	<path
   style="fill:#343a40"
   inkscape:connector-curvature="0"
   id="path66"
   d="m 683.139,154.371 c 0.49,-0.089 0.961,-0.156 1.406,-0.201 0.447,-0.044 0.916,-0.066 1.408,-0.066 0.49,0 0.982,0.022 1.475,0.066 0.49,0.045 0.938,0.112 1.34,0.201 0.133,0.67 0.268,1.553 0.4,2.646 0.135,1.095 0.201,2.021 0.201,2.78 0.939,-1.518 2.178,-2.836 3.719,-3.953 1.541,-1.115 3.518,-1.675 5.93,-1.675 0.357,0 0.727,0.012 1.105,0.034 0.378,0.022 0.703,0.056 0.973,0.1 0.088,0.402 0.154,0.827 0.199,1.273 0.045,0.447 0.068,0.916 0.068,1.407 0,0.536 -0.033,1.095 -0.102,1.675 -0.066,0.581 -0.145,1.139 -0.234,1.675 -0.357,-0.089 -0.727,-0.134 -1.105,-0.134 -0.378,0 -0.682,0 -0.904,0 -1.205,0 -2.355,0.168 -3.451,0.503 -1.094,0.335 -2.076,0.927 -2.947,1.775 -0.871,0.848 -1.564,2.01 -2.076,3.483 -0.516,1.475 -0.771,3.373 -0.771,5.695 v 17.085 c -0.492,0.089 -1.039,0.156 -1.641,0.201 -0.604,0.044 -1.15,0.066 -1.643,0.066 -0.493,0 -1.037,-0.022 -1.641,-0.066 -0.604,-0.045 -1.172,-0.112 -1.709,-0.201 v -34.369 z" />
	<path
   style="fill:#343a40"
   inkscape:connector-curvature="0"
   id="path68"
   d="m 710.34,173.198 c 0.09,3.752 1.061,6.499 2.914,8.241 1.853,1.742 4.59,2.612 8.209,2.612 3.17,0 6.186,-0.558 9.045,-1.675 0.355,0.67 0.646,1.485 0.871,2.445 0.223,0.962 0.355,1.91 0.4,2.848 -1.473,0.626 -3.094,1.095 -4.857,1.407 -1.764,0.312 -3.719,0.469 -5.861,0.469 -3.127,0 -5.807,-0.436 -8.041,-1.307 -2.234,-0.87 -4.076,-2.099 -5.527,-3.685 -1.451,-1.585 -2.512,-3.461 -3.182,-5.628 -0.67,-2.166 -1.006,-4.545 -1.006,-7.136 0,-2.546 0.324,-4.925 0.973,-7.136 0.646,-2.211 1.641,-4.131 2.98,-5.762 1.34,-1.63 3.025,-2.925 5.059,-3.886 2.031,-0.96 4.432,-1.44 7.203,-1.44 2.367,0 4.443,0.401 6.23,1.206 1.785,0.804 3.283,1.909 4.488,3.316 1.207,1.407 2.121,3.082 2.748,5.024 0.625,1.943 0.938,4.054 0.938,6.332 0,0.626 -0.023,1.284 -0.066,1.977 -0.045,0.692 -0.09,1.284 -0.135,1.775 H 710.34 z m 17.017,-4.958 c 0,-1.25 -0.166,-2.445 -0.502,-3.585 -0.336,-1.139 -0.826,-2.132 -1.475,-2.981 -0.646,-0.848 -1.473,-1.529 -2.479,-2.043 -1.004,-0.513 -2.201,-0.771 -3.584,-0.771 -2.725,0 -4.814,0.827 -6.266,2.479 -1.451,1.653 -2.334,3.953 -2.646,6.901 h 16.952 z" />
</g><path
     style="fill:#343a40"
     inkscape:connector-curvature="0"
     id="path74"
     d="m 201.45772,390.7051 c 0,0 -7.906,-33.637 -8.197,-34.658 -1.397,-4.92 -5.923,-8.523 -11.292,-8.523 -5.267,0 -9.811,3.442 -11.21,8.247 -1.163,3.991 -10.798,36.737 -10.798,45.159 0,12.154 9.853,22.008 22.008,22.008 12.155,0 22.009,-9.854 22.009,-22.008 -0.001,-3.693 -0.915,-7.17 -2.52,-10.225 z m -19.489,21.49 c -5.429,0 -11.043,-5.488 -11.043,-10.917 0,-5.43 5.614,-10.833 11.043,-10.833 5.429,0 11.208,4.737 11.208,10.167 -10e-4,5.429 -5.779,11.583 -11.208,11.583 z" /><path
     style="fill:#343a40"
     inkscape:connector-curvature="0"
     id="path76"
     d="m 226.56272,385.0801 c 2.57,-3.807 2.783,-8.934 0.115,-13.019 -2.814,-4.304 -7.973,-6.152 -12.693,-4.964 -1.23,0.31 -35.101,10.057 -44.053,15.758 -10.252,6.528 -13.033,20.288 -6.383,30.463 6.65,10.175 20.215,12.918 30.463,6.382 10.33,-6.589 29.914,-30.714 32.551,-34.62 z m -52.82,21.576 c -2.97,-4.546 -1.693,-10.637 2.852,-13.607 4.545,-2.97 10.637,-1.693 13.605,2.852 2.971,4.545 1.694,10.636 -2.85,13.606 -4.545,2.97 -10.636,1.693 -13.607,-2.851 z" /></g>
</svg>